# Blender 4.3.0
# www.blender.org
mtllib uploads_files_4138961_wires.mtl
o Red_wire.001
v -0.137233 0.005344 0.005458
v -0.137233 0.010320 0.005126
v -0.137233 0.009989 0.000151
v -0.394094 0.005021 0.000489
v -0.393816 0.005344 0.005457
v -0.393538 0.010312 0.005119
v -0.393816 0.009989 0.000151
v -0.484090 0.010773 0.009909
v -0.483264 0.011112 0.014820
v -0.482438 0.016092 0.014424
v -0.483264 0.015757 0.009513
v -0.552550 0.020684 0.024631
v -0.550967 0.020536 0.029360
v -0.549383 0.025426 0.028782
v -0.550967 0.025565 0.024053
v -0.611073 0.031565 0.027614
v -0.609034 0.030674 0.031762
v -0.606996 0.035437 0.031404
v -0.609034 0.036363 0.027239
v -0.137233 0.007093 0.002780
v -0.137233 0.010370 -0.000979
v -0.137233 0.006611 -0.004256
v -0.137233 0.003334 -0.000497
v -0.394093 0.007092 0.002769
v -0.393816 0.010370 -0.000979
v -0.393538 0.006612 -0.004245
v -0.393816 0.003334 -0.000497
v -0.484090 0.006116 -0.011500
v -0.483264 0.009400 -0.015161
v -0.482438 0.005648 -0.018340
v -0.483264 0.002364 -0.014680
v -0.554138 0.010720 -0.019865
v -0.552579 0.014121 -0.023025
v -0.551022 0.010491 -0.025694
v -0.552579 0.007085 -0.022544
v -0.619114 0.020083 -0.038769
v -0.617017 0.023236 -0.042240
v -0.615102 0.019805 -0.044307
v -0.617204 0.016664 -0.040811
v -0.137234 -0.005872 0.000907
v -0.137234 -0.000890 0.001117
v -0.137234 -0.000680 -0.003866
v -0.137234 -0.005663 -0.004075
v -0.394094 -0.005864 0.000900
v -0.393816 -0.000890 0.001116
v -0.393539 -0.000688 -0.003859
v -0.393816 -0.005663 -0.004075
v -0.484090 0.004665 -0.008780
v -0.483264 0.009575 -0.008504
v -0.482438 0.009713 -0.013421
v -0.483264 0.004802 -0.013696
v -0.554138 0.014072 -0.010414
v -0.552580 0.018665 -0.009734
v -0.551023 0.018480 -0.014236
v -0.552580 0.013892 -0.014926
v -0.619114 0.034681 -0.014919
v -0.617018 0.039362 -0.014627
v -0.615103 0.038831 -0.018598
v -0.617205 0.034139 -0.018865
v -0.359243 0.005846 -0.010126
v -0.359243 0.010126 -0.005846
v -0.359243 0.011692 -0.000000
v -0.359242 0.010126 0.005846
v -0.359243 0.005846 0.010126
v -0.359243 0.000000 0.011692
v -0.359242 -0.005846 0.010126
v -0.359242 -0.010126 0.005846
v -0.359243 -0.011692 -0.000000
v -0.359243 -0.010126 -0.005846
v -0.359243 -0.005846 -0.010126
v -0.359243 0.000000 -0.011692
v -0.484090 -0.006477 0.002513
v -0.483264 -0.009175 -0.001599
v -0.482438 -0.013209 0.001214
v -0.483264 -0.010512 0.005326
v -0.552550 -0.028427 -0.001723
v -0.550966 -0.030852 -0.005783
v -0.549383 -0.034614 -0.002918
v -0.550966 -0.032188 0.001142
v -0.611072 -0.069081 -0.009570
v -0.609034 -0.071238 -0.013578
v -0.606996 -0.074732 -0.010661
v -0.609034 -0.072574 -0.006653
v -0.137233 0.007488 -0.002545
v -0.137233 0.004540 -0.006568
v -0.137233 0.000518 -0.003620
v -0.394094 0.007478 -0.002547
v -0.393816 0.004540 -0.006568
v -0.393538 0.000529 -0.003618
v -0.393816 0.003466 0.000403
v -0.484090 -0.006658 -0.004726
v -0.483264 -0.009509 -0.008733
v -0.482438 -0.013435 -0.005770
v -0.483264 -0.010584 -0.001763
v -0.554138 -0.013809 -0.011053
v -0.552579 -0.016146 -0.015065
v -0.551022 -0.019547 -0.012109
v -0.552579 -0.017220 -0.008095
v -0.619114 -0.030198 -0.024336
v -0.617017 -0.032893 -0.028174
v -0.615102 -0.035662 -0.025279
v -0.617204 -0.032941 -0.021448
v -0.137233 0.004529 -0.005782
v -0.137233 0.000024 -0.007920
v -0.394094 0.004519 -0.005778
v -0.393816 0.000024 -0.007920
v -0.393539 -0.002104 -0.003418
v -0.393816 0.002391 -0.001276
v -0.484090 -0.008954 -0.000977
v -0.483264 -0.013367 -0.003148
v -0.482438 -0.015413 0.001325
v -0.483264 -0.011000 0.003496
v -0.552550 -0.030012 0.006527
v -0.550967 -0.034163 0.004263
v -0.549383 -0.035947 0.008642
v -0.550967 -0.031796 0.010906
v -0.610188 -0.050864 0.019838
v -0.608164 -0.055053 0.017492
v -0.606140 -0.056862 0.021788
v -0.608164 -0.052686 0.024135
v -0.137234 0.002426 -0.002912
v -0.137234 0.002319 0.002074
v -0.394094 0.007297 0.002173
v -0.393816 0.007412 -0.002805
v -0.393539 0.002434 -0.002904
v -0.393816 0.002319 0.002074
v -0.484091 -0.002597 -0.008155
v -0.483265 -0.002421 -0.013070
v -0.482439 -0.007339 -0.013107
v -0.483264 -0.007514 -0.008192
v -0.552551 -0.018060 -0.024299
v -0.550967 -0.017693 -0.029013
v -0.549383 -0.022419 -0.028849
v -0.550967 -0.022786 -0.024134
v -0.611073 -0.046702 -0.054198
v -0.609035 -0.046146 -0.058716
v -0.606997 -0.050683 -0.058354
v -0.609035 -0.051239 -0.053837
v -0.137233 0.005843 0.002648
v -0.137233 0.003705 -0.004072
v -0.137233 0.001413 0.000357
v -0.394094 0.005840 0.002638
v -0.393816 0.008134 -0.001781
v -0.393538 0.003708 -0.004062
v -0.393816 0.001413 0.000357
v -0.484090 0.001503 -0.010992
v -0.483264 0.003824 -0.015328
v -0.482438 -0.000575 -0.017525
v -0.483264 -0.002896 -0.013189
v -0.552550 -0.005274 -0.032294
v -0.550967 -0.002869 -0.036365
v -0.549383 -0.007184 -0.038299
v -0.550967 -0.009589 -0.034227
v -0.611073 -0.017826 -0.071750
v -0.609034 -0.015338 -0.075561
v -0.606996 -0.019571 -0.077234
v -0.609034 -0.022059 -0.073423
v -0.137233 0.000287 -0.005683
v -0.137233 -0.004608 -0.006639
v -0.394094 0.000278 -0.005677
v -0.393816 -0.004608 -0.006639
v -0.393539 -0.005554 -0.001751
v -0.393816 -0.000669 -0.000789
v -0.484090 -0.011587 0.002310
v -0.483264 -0.016400 0.001299
v -0.482438 -0.017274 0.006139
v -0.483264 -0.012461 0.007150
v -0.552550 -0.030131 0.014794
v -0.550967 -0.034713 0.013628
v -0.549383 -0.035358 0.018313
v -0.550967 -0.030775 0.019479
v -0.611073 -0.064477 0.037916
v -0.609035 -0.068833 0.036598
v -0.606996 -0.069251 0.041130
v -0.609035 -0.064895 0.042449
v -0.137233 -0.001096 -0.011450
v -0.137233 -0.003512 -0.007088
v -0.137233 0.000850 -0.004672
v -0.137233 0.003266 -0.009035
v -0.394094 -0.001093 -0.011440
v -0.393816 -0.003512 -0.007088
v -0.393539 0.000847 -0.004682
v -0.393816 0.003266 -0.009035
v -0.484090 0.002855 0.002307
v -0.483264 0.000412 0.006575
v -0.482438 0.004747 0.008897
v -0.483264 0.007190 0.004629
v -0.552550 0.009025 0.023793
v -0.550967 0.006505 0.027795
v -0.549383 0.010764 0.029849
v -0.550967 0.013284 0.025848
v -0.610188 0.021004 0.045439
v -0.608164 0.018400 0.049472
v -0.606140 0.022575 0.051546
v -0.608164 0.025179 0.047525
v -0.137233 -0.008643 -0.006312
v -0.137234 -0.011977 -0.002604
v -0.137234 -0.008268 0.000730
v -0.137234 -0.004934 -0.002978
v -0.394094 -0.008642 -0.006301
v -0.393816 -0.011977 -0.002604
v -0.393539 -0.008269 0.000719
v -0.393816 -0.004934 -0.002978
v -0.484090 -0.007883 0.007981
v -0.483264 -0.011222 0.011592
v -0.482439 -0.007519 0.014828
v -0.483264 -0.004179 0.011217
v -0.554138 -0.012613 0.016275
v -0.552580 -0.016062 0.019383
v -0.551023 -0.012473 0.022107
v -0.552580 -0.009019 0.019009
v -0.619114 -0.022262 0.035035
v -0.617018 -0.025467 0.038458
v -0.615103 -0.022068 0.040576
v -0.617205 -0.018874 0.037129
v -0.137233 0.007577 0.005226
v -0.137233 0.003446 0.008020
v -0.394094 0.007566 0.005224
v -0.393816 0.004783 0.001095
v -0.393538 0.000663 0.003891
v -0.393816 0.003446 0.008020
v -0.484090 -0.006477 0.002513
v -0.483264 -0.009175 -0.001599
v -0.482438 -0.013209 0.001214
v -0.483264 -0.010512 0.005326
v -0.550008 -0.015197 0.001484
v -0.548463 -0.017830 -0.002627
v -0.546880 -0.021910 0.000233
v -0.548425 -0.019320 0.004352
v -0.612959 -0.036461 -0.005201
v -0.610901 -0.039993 -0.009067
v -0.608827 -0.043680 -0.006424
v -0.610881 -0.040465 -0.002376
v -0.137233 0.003113 0.009572
v -0.137233 0.005383 0.005131
v -0.137233 0.000942 0.002862
v -0.137233 -0.001327 0.007302
v -0.394094 0.003110 0.009561
v -0.393816 0.005383 0.005131
v -0.393539 0.000945 0.002872
v -0.393816 -0.001327 0.007302
v -0.484090 -0.001293 -0.004047
v -0.483264 0.001006 -0.008394
v -0.482438 -0.003404 -0.010570
v -0.483264 -0.005704 -0.006223
v -0.550008 -0.004600 -0.012180
v -0.548463 -0.002270 -0.016471
v -0.546880 -0.006744 -0.018664
v -0.548425 -0.009102 -0.014408
v -0.612959 -0.009007 -0.034031
v -0.610901 -0.007325 -0.038990
v -0.608827 -0.011419 -0.040944
v -0.610881 -0.013413 -0.036174
v 0.000050 0.005846 -0.010125
v 0.000058 0.000000 -0.011692
v 0.000029 0.010126 -0.005846
v 0.000000 0.011692 -0.000000
v -0.000029 0.010126 0.005846
v -0.000050 0.005846 0.010125
v -0.000058 0.000000 0.011692
v -0.000050 -0.005846 0.010125
v -0.000029 -0.010126 0.005846
v 0.000000 -0.011692 -0.000000
v 0.000029 -0.010126 -0.005846
v 0.000050 -0.005846 -0.010125
vn -0.0000 0.7525 0.6586
vn 0.0576 0.7573 0.6505
vn 0.0223 -0.4065 0.9134
vn -0.0000 0.0671 0.9977
vn -0.0000 0.9978 -0.0656
vn -0.0243 0.8555 -0.5172
vn -0.1169 -0.7382 -0.6643
vn -0.1820 -0.7333 -0.6551
vn -0.0522 0.6455 -0.7620
vn 0.0456 -0.6884 0.7239
vn 0.1778 0.7429 0.6454
vn -0.1984 -0.7337 -0.6499
vn 0.0098 0.6990 -0.7151
vn -0.0134 -0.6648 0.7469
vn 0.2022 0.6940 0.6910
vn -0.8799 -0.3329 -0.3390
vn -0.5099 0.7188 -0.4725
vn -0.5334 -0.4691 0.7039
vn -0.2174 0.6976 0.6827
vn -0.0000 0.9977 -0.0682
vn -0.0028 0.9995 -0.0330
vn -0.0996 0.3801 0.9196
vn -0.0000 0.7532 0.6578
vn -0.0000 -0.0682 -0.9977
vn 0.0787 -0.0680 -0.9946
vn -0.0000 -0.7532 -0.6578
vn -0.0036 -0.9747 -0.2234
vn -0.1343 0.0445 0.9899
vn -0.0364 -0.9984 0.0441
vn 0.0354 0.9970 -0.0693
vn 0.1310 -0.0769 -0.9884
vn -0.2058 0.0464 0.9775
vn -0.1089 -0.9911 0.0769
vn 0.1159 0.9933 0.0018
vn 0.1726 -0.0774 -0.9820
vn -0.8816 0.0862 0.4640
vn -0.5710 -0.8060 -0.1560
vn -0.4918 0.8222 -0.2864
vn -0.1474 -0.0453 -0.9880
vn -0.0000 -0.7362 0.6768
vn -0.0788 -0.7339 0.6747
vn -0.0028 -0.7023 -0.7118
vn -0.0000 -0.6768 -0.7362
vn -0.0000 -0.0428 0.9991
vn -0.0035 0.3834 0.9236
vn 0.0995 0.4803 -0.8714
vn -0.0000 0.0428 -0.9991
vn -0.1343 -0.7450 0.6534
vn -0.0364 -0.6584 -0.7518
vn 0.0354 0.6772 0.7349
vn 0.1310 0.7235 -0.6778
vn -0.2058 -0.7341 0.6471
vn -0.1089 -0.6794 -0.7256
vn 0.1159 0.6193 0.7765
vn 0.1726 0.7182 -0.6741
vn -0.8816 -0.3083 0.3573
vn -0.5710 -0.3820 -0.7267
vn -0.4918 0.7374 0.4629
vn -0.1474 0.7430 -0.6528
vn -0.3102 0.9334 0.1802
vn -0.4490 0.8773 0.1693
vn -0.0301 -0.1302 0.9910
vn -0.0112 -0.1562 0.9877
vn -0.0113 0.2226 -0.9748
vn -0.0301 0.2480 -0.9683
vn 0.3098 -0.9336 -0.1802
vn 0.4491 -0.8773 -0.1693
vn -0.9426 0.3278 0.0633
vn -0.4719 -0.4828 0.7377
vn -0.4719 -0.1736 -0.8644
vn 0.0022 -0.9819 -0.1895
vn -0.0000 0.1523 -0.9883
vn -0.0028 0.1871 -0.9823
vn -0.0996 0.9806 -0.1690
vn -0.0000 0.8070 -0.5905
vn -0.0000 -0.5918 -0.8061
vn 0.0996 -0.8842 -0.4564
vn -0.1343 0.9756 0.1738
vn -0.0364 -0.1760 0.9837
vn -0.0056 -0.1176 0.9930
vn 0.0354 0.1511 -0.9879
vn 0.1310 -0.9812 -0.1418
vn -0.2058 0.9638 0.1692
vn -0.1089 -0.1424 0.9838
vn 0.1159 0.2197 -0.9687
vn 0.1726 -0.9750 -0.1399
vn -0.8816 0.4716 0.0177
vn -0.5710 -0.3290 0.7521
vn -0.4918 -0.0990 -0.8650
vn -0.1474 -0.9739 -0.1726
vn -0.0000 0.4294 -0.9031
vn -0.0035 0.0076 -1.0000
vn -0.0996 0.7824 -0.6147
vn -0.2344 0.9157 -0.3263
vn -0.0575 0.6343 0.7709
vn -0.1112 0.8958 0.4303
vn -0.0084 -0.3030 -0.9529
vn 0.1112 -0.8958 -0.4303
vn 0.2464 -0.9691 0.0101
vn -0.3522 0.8747 -0.3331
vn 0.0375 0.3686 0.9288
vn -0.0443 -0.3329 -0.9419
vn 0.3462 -0.8902 0.2962
vn -0.8896 0.4415 -0.1173
vn -0.4892 0.0439 0.8711
vn -0.5518 -0.5197 -0.6523
vn -0.1137 -0.9264 0.3589
vn -0.0000 -0.9998 -0.0223
vn -0.0036 -0.8914 0.4531
vn 0.0996 -0.8811 -0.4624
vn -0.1570 0.6832 0.7132
vn -0.2344 0.6725 0.7020
vn -0.0084 -0.6979 0.7162
vn -0.0056 0.7460 -0.6660
vn -0.0084 0.7455 -0.6664
vn 0.2342 -0.6725 -0.7021
vn -0.4490 0.6181 0.6452
vn -0.0301 -0.6790 0.7335
vn -0.0301 0.7620 -0.6468
vn 0.4491 -0.6181 -0.6452
vn -0.9426 0.2310 0.2411
vn -0.4719 -0.8204 0.3230
vn -0.4719 0.3579 -0.8057
vn 0.0022 -0.6917 -0.7221
vn -0.0000 -0.4588 0.8886
vn -0.0996 -0.0155 0.9949
vn -0.0028 -0.9417 0.3366
vn -0.0000 -0.9529 0.3032
vn 0.0996 -0.5875 -0.8031
vn -0.0000 -0.8878 -0.4602
vn -0.2344 0.2947 0.9264
vn -0.0084 -0.9419 0.3358
vn -0.0056 0.9630 -0.2696
vn -0.0084 0.9628 -0.2701
vn 0.2342 -0.2947 -0.9264
vn -0.4490 0.2709 0.8515
vn -0.0301 -0.9326 0.3597
vn -0.0301 0.9690 -0.2453
vn 0.4491 -0.2709 -0.8514
vn -0.9426 0.1012 0.3182
vn -0.4719 -0.8788 -0.0712
vn -0.4719 0.6761 -0.5659
vn 0.0022 -0.3032 -0.9529
vn -0.0000 0.1924 -0.9813
vn -0.0035 -0.2402 -0.9707
vn -0.0996 0.6058 -0.7893
vn -0.2344 0.8064 -0.5429
vn -0.0084 0.5867 0.8098
vn -0.0056 0.5872 0.8094
vn -0.0084 -0.5295 -0.8483
vn 0.1570 -0.8192 0.5515
vn 0.2342 -0.8065 0.5429
vn -0.4490 0.7412 -0.4990
vn -0.0301 0.6070 0.7941
vn -0.2012 -0.2666 -0.9426
vn 0.3825 -0.5426 0.7479
vn -0.9426 0.2770 -0.1865
vn -0.4719 0.1783 0.8634
vn -0.8668 -0.2780 -0.4139
vn -0.2872 -0.4000 0.8703
vn -0.0000 -0.2760 -0.9611
vn -0.0788 -0.2752 -0.9582
vn -0.0028 0.9508 -0.3098
vn -0.0000 0.9611 -0.2760
vn -0.0000 -0.8744 -0.4851
vn -0.0035 -0.9975 -0.0702
vn 0.0996 0.5645 0.8194
vn -0.0000 0.8744 0.4851
vn -0.2344 -0.2683 -0.9344
vn -0.0084 0.9510 -0.3090
vn -0.0084 -0.9701 0.2427
vn 0.2342 0.2684 0.9344
vn -0.3522 -0.2776 -0.8938
vn 0.0375 0.9501 -0.3097
vn -0.0443 -0.9609 0.2733
vn 0.3462 0.2399 0.9070
vn -0.8896 -0.0894 -0.4479
vn -0.4892 0.8721 0.0107
vn -0.5518 -0.6835 0.4778
vn -0.1137 0.3002 0.9471
vn -0.0000 -0.0531 -0.9986
vn -0.0788 -0.0529 -0.9955
vn -0.0028 0.9961 -0.0883
vn -0.0000 0.9986 -0.0531
vn -0.0000 -0.9986 0.0531
vn -0.0028 -0.9998 0.0179
vn -0.0000 0.0531 0.9986
vn 0.0787 0.0529 0.9955
vn -0.1343 -0.0294 -0.9905
vn -0.0364 0.9989 -0.0290
vn 0.0354 -0.9979 0.0542
vn 0.1310 0.0619 0.9894
vn -0.2058 -0.0316 -0.9781
vn -0.1089 0.9921 -0.0619
vn 0.1159 -0.9931 -0.0169
vn 0.1726 0.0625 0.9830
vn -0.8816 -0.0792 -0.4653
vn -0.5710 0.8036 0.1682
vn -0.4918 -0.8265 0.2739
vn -0.1474 0.0303 0.9886
vn -0.0000 0.5609 0.8279
vn -0.0996 0.8663 0.4895
vn -0.0035 0.1586 0.9873
vn -0.1441 0.9718 0.1864
vn 0.0061 -0.1957 0.9806
vn -0.1112 0.8206 -0.5606
vn -0.0533 0.4693 -0.8814
vn 0.1343 -0.9805 0.1434
vn 0.1112 -0.8206 0.5606
vn -0.2411 0.9538 0.1794
vn -0.0164 -0.1427 0.9896
vn 0.0163 0.2287 -0.9734
vn 0.2257 -0.9593 -0.1697
vn -0.8451 0.5296 0.0726
vn -0.5427 -0.3710 0.7536
vn -0.5548 -0.1255 -0.8224
vn -0.1474 -0.9731 -0.1770
vn -0.0000 0.3078 0.9514
vn -0.0788 0.3069 0.9485
vn -0.0028 -0.9400 0.3412
vn -0.0000 -0.9514 0.3079
vn -0.0000 0.8901 0.4558
vn -0.0557 0.8900 0.4526
vn 0.0557 -0.8900 -0.4526
vn -0.0000 -0.8901 -0.4558
vn -0.1441 0.3057 0.9412
vn 0.0061 -0.9533 0.3019
vn -0.0533 0.9985 -0.0144
vn 0.1343 -0.5988 -0.7895
vn -0.2411 0.3031 0.9219
vn -0.0164 -0.9356 0.3526
vn 0.0163 0.9629 -0.2694
vn 0.2257 -0.3144 -0.9221
vn -0.8451 0.1920 0.4989
vn -0.5427 -0.8391 0.0387
vn -0.5548 0.6598 -0.5068
vn -0.1474 -0.3146 -0.9377
vn -0.0000 -0.0000 -1.0000
vn -0.0000 -0.4997 -0.8662
vn -0.0000 -0.5000 -0.8660
vn -0.0000 -0.8657 -0.5006
vn -0.0000 -0.8660 -0.5000
vn -0.0000 -1.0000 -0.0008
vn -0.0000 -1.0000 -0.0000
vn -0.0000 -0.8664 0.4994
vn -0.0000 -0.8660 0.5000
vn -0.0000 -0.5003 0.8658
vn -0.0000 -0.5000 0.8660
vn -0.0000 -0.0000 1.0000
vn -0.0000 0.5003 0.8658
vn -0.0000 0.5000 0.8660
vn -0.0000 0.8664 0.4994
vn -0.0000 0.8660 0.5000
vn -0.0000 1.0000 -0.0008
vn -0.0000 1.0000 -0.0000
vn -0.0000 0.8657 -0.5006
vn -0.0000 0.8660 -0.5000
vn -0.0000 0.4996 -0.8662
vn -0.0000 0.5000 -0.8660
vn 1.0000 -0.0000 0.0049
vn 1.0000 -0.0000 0.0050
vt 0.000000 0.500000
vt 0.250000 0.500000
vt 0.250000 0.250000
vt 0.000000 0.250000
vt 0.000000 0.750000
vt 0.250000 0.750000
vt 0.250000 1.000000
vt 0.500000 1.000000
vt 0.500000 0.750000
vt 0.500000 0.250000
vt 0.500000 0.000000
vt 0.250000 0.000000
vt 0.500000 0.500000
vt 0.750000 1.000000
vt 0.750000 0.750000
vt 0.750000 0.250000
vt 0.750000 0.000000
vt 0.750000 0.500000
vt 1.000000 1.000000
vt 1.000000 0.750000
vt 1.000000 0.250000
vt 1.000000 0.000000
vt 1.000000 0.500000
vt 0.000000 0.000000
vt 0.000000 1.000000
vt 0.000000 0.916667
vt 0.029412 0.916667
vt 0.029412 0.833333
vt 0.000000 0.833333
vt 0.029412 0.750000
vt 0.029412 0.666667
vt 0.000000 0.666667
vt 0.029412 0.583333
vt 0.000000 0.583333
vt 0.029412 0.500000
vt 0.029412 0.416667
vt 0.000000 0.416667
vt 0.029412 0.333333
vt 0.000000 0.333333
vt 0.029412 0.250000
vt 0.029412 0.166667
vt 0.000000 0.166667
vt 0.029412 0.083333
vt 0.000000 0.083333
vt 0.029412 0.000000
vt 0.029412 1.000000
s 1
usemtl hopper
f 2/1/1 6/2/2 5/3/3 1/4/4
f 3/5/5 7/6/6 6/2/2 2/1/1
f 4/7/7 8/8/8 11/9/9 7/6/6
f 5/3/3 9/10/10 8/11/8 4/12/7
f 6/2/2 10/13/11 9/10/10 5/3/3
f 7/6/6 11/9/9 10/13/11 6/2/2
f 8/8/8 12/14/12 15/15/13 11/9/9
f 9/10/10 13/16/14 12/17/12 8/11/8
f 10/13/11 14/18/15 13/16/14 9/10/10
f 11/9/9 15/15/13 14/18/15 10/13/11
f 12/14/12 16/19/16 19/20/17 15/15/13
f 13/16/14 17/21/18 16/22/16 12/17/12
f 14/18/15 18/23/19 17/21/18 13/16/14
f 15/15/13 19/20/17 18/23/19 14/18/15
f 19/20/17 16/22/16 17/21/18 18/23/19
f 21/4/20 25/3/21 24/12/22 20/24/23
f 22/1/24 26/2/25 25/3/21 21/4/20
f 23/5/26 27/6/27 26/2/25 22/1/24
f 24/7/22 28/8/28 31/9/29 27/6/27
f 25/3/21 29/10/30 28/11/28 24/12/22
f 26/2/25 30/13/31 29/10/30 25/3/21
f 27/6/27 31/9/29 30/13/31 26/2/25
f 28/8/28 32/14/32 35/15/33 31/9/29
f 29/10/30 33/16/34 32/17/32 28/11/28
f 30/13/31 34/18/35 33/16/34 29/10/30
f 31/9/29 35/15/33 34/18/35 30/13/31
f 32/14/32 36/19/36 39/20/37 35/15/33
f 33/16/34 37/21/38 36/22/36 32/17/32
f 34/18/35 38/23/39 37/21/38 33/16/34
f 35/15/33 39/20/37 38/23/39 34/18/35
f 39/20/37 36/22/36 37/21/38 38/23/39
f 40/25/40 44/7/41 47/6/42 43/5/43
f 41/4/44 45/3/45 44/12/41 40/24/40
f 43/5/43 47/6/42 46/2/46 42/1/47
f 44/7/41 48/8/48 51/9/49 47/6/42
f 45/3/45 49/10/50 48/11/48 44/12/41
f 46/2/46 50/13/51 49/10/50 45/3/45
f 47/6/42 51/9/49 50/13/51 46/2/46
f 48/8/48 52/14/52 55/15/53 51/9/49
f 49/10/50 53/16/54 52/17/52 48/11/48
f 50/13/51 54/18/55 53/16/54 49/10/50
f 51/9/49 55/15/53 54/18/55 50/13/51
f 52/14/52 56/19/56 59/20/57 55/15/53
f 53/16/54 57/21/58 56/22/56 52/17/52
f 54/18/55 58/23/59 57/21/58 53/16/54
f 55/15/53 59/20/57 58/23/59 54/18/55
f 59/20/57 56/22/56 57/21/58 58/23/59
f 72/8/60 76/14/61 79/15/62 75/9/63
f 73/10/64 77/16/65 76/17/61 72/11/60
f 74/13/66 78/18/67 77/16/65 73/10/64
f 75/9/63 79/15/62 78/18/67 74/13/66
f 76/14/61 80/19/68 83/20/69 79/15/62
f 77/16/65 81/21/70 80/22/68 76/17/61
f 78/18/67 82/23/71 81/21/70 77/16/65
f 79/15/62 83/20/69 82/23/71 78/18/67
f 83/20/69 80/22/68 81/21/70 82/23/71
f 85/4/72 88/3/73 87/12/74 84/24/75
f 86/1/76 89/2/77 88/3/73 85/4/72
f 87/7/74 91/8/78 94/9/79 90/6/80
f 88/3/73 92/10/81 91/11/78 87/12/74
f 89/2/77 93/13/82 92/10/81 88/3/73
f 90/6/80 94/9/79 93/13/82 89/2/77
f 91/8/78 95/14/83 98/15/84 94/9/79
f 92/10/81 96/16/85 95/17/83 91/11/78
f 93/13/82 97/18/86 96/16/85 92/10/81
f 94/9/79 98/15/84 97/18/86 93/13/82
f 95/14/83 99/19/87 102/20/88 98/15/84
f 96/16/85 100/21/89 99/22/87 95/17/83
f 97/18/86 101/23/90 100/21/89 96/16/85
f 98/15/84 102/20/88 101/23/90 97/18/86
f 102/20/88 99/22/87 100/21/89 101/23/90
f 104/4/91 106/3/92 105/12/93 103/24/91
f 105/7/93 109/8/94 112/9/95 108/6/96
f 106/3/92 110/10/97 109/11/94 105/12/93
f 107/2/98 111/13/99 110/10/97 106/3/92
f 109/8/94 113/14/100 116/15/101 112/9/95
f 110/10/97 114/16/102 113/17/100 109/11/94
f 111/13/99 115/18/103 114/16/102 110/10/97
f 112/9/95 116/15/101 115/18/103 111/13/99
f 113/14/100 117/19/104 120/20/105 116/15/101
f 114/16/102 118/21/106 117/22/104 113/17/100
f 115/18/103 119/23/107 118/21/106 114/16/102
f 116/15/101 120/20/105 119/23/107 115/18/103
f 120/20/105 117/22/104 118/21/106 119/23/107
f 122/5/108 126/6/109 125/2/110 121/1/108
f 123/7/111 127/8/112 130/9/113 126/6/109
f 124/3/114 128/10/115 127/11/112 123/12/111
f 125/2/110 129/13/116 128/10/115 124/3/114
f 126/6/109 130/9/113 129/13/116 125/2/110
f 127/8/112 131/14/117 134/15/118 130/9/113
f 128/10/115 132/16/119 131/17/117 127/11/112
f 129/13/116 133/18/120 132/16/119 128/10/115
f 130/9/113 134/15/118 133/18/120 129/13/116
f 131/14/117 135/19/121 138/20/122 134/15/118
f 132/16/119 136/21/123 135/22/121 131/17/117
f 133/18/120 137/23/124 136/21/123 132/16/119
f 134/15/118 138/20/122 137/23/124 133/18/120
f 138/20/122 135/22/121 136/21/123 137/23/124
f 139/25/125 142/7/126 145/6/127 141/5/128
f 141/5/128 145/6/127 144/2/129 140/1/130
f 142/7/126 146/8/131 149/9/132 145/6/127
f 143/3/133 147/10/134 146/11/131 142/12/126
f 144/2/129 148/13/135 147/10/134 143/3/133
f 145/6/127 149/9/132 148/13/135 144/2/129
f 146/8/131 150/14/136 153/15/137 149/9/132
f 147/10/134 151/16/138 150/17/136 146/11/131
f 148/13/135 152/18/139 151/16/138 147/10/134
f 149/9/132 153/15/137 152/18/139 148/13/135
f 150/14/136 154/19/140 157/20/141 153/15/137
f 151/16/138 155/21/142 154/22/140 150/17/136
f 152/18/139 156/23/143 155/21/142 151/16/138
f 153/15/137 157/20/141 156/23/143 152/18/139
f 157/20/141 154/22/140 155/21/142 156/23/143
f 159/4/144 161/3/145 160/12/146 158/24/144
f 160/7/146 164/8/147 167/9/148 163/6/149
f 161/3/145 165/10/150 164/11/147 160/12/146
f 162/2/151 166/13/152 165/10/150 161/3/145
f 163/6/149 167/9/148 166/13/152 162/2/151
f 164/8/147 168/14/153 171/15/154 167/9/148
f 165/10/150 169/16/155 168/17/153 164/11/147
f 166/13/152 170/18/156 169/16/155 165/10/150
f 167/9/148 171/15/154 170/18/156 166/13/152
f 168/14/153 172/19/157 175/20/158 171/15/154
f 169/16/155 173/21/159 172/22/157 168/17/153
f 171/15/154 175/20/158 174/23/160 170/18/156
f 175/20/158 172/22/157 173/21/159 174/23/160
f 176/25/161 180/7/162 183/6/163 179/5/164
f 177/4/165 181/3/166 180/12/162 176/24/161
f 179/5/164 183/6/163 182/2/167 178/1/168
f 180/7/162 184/8/169 187/9/170 183/6/163
f 181/3/166 185/10/171 184/11/169 180/12/162
f 182/2/167 186/13/172 185/10/171 181/3/166
f 183/6/163 187/9/170 186/13/172 182/2/167
f 184/8/169 188/14/173 191/15/174 187/9/170
f 185/10/171 189/16/175 188/17/173 184/11/169
f 186/13/172 190/18/176 189/16/175 185/10/171
f 187/9/170 191/15/174 190/18/176 186/13/172
f 188/14/173 192/19/177 195/20/178 191/15/174
f 189/16/175 193/21/179 192/22/177 188/17/173
f 190/18/176 194/23/180 193/21/179 189/16/175
f 191/15/174 195/20/178 194/23/180 190/18/176
f 195/20/178 192/22/177 193/21/179 194/23/180
f 196/25/181 200/7/182 203/6/183 199/5/184
f 197/4/185 201/3/186 200/12/182 196/24/181
f 198/1/187 202/2/188 201/3/186 197/4/185
f 199/5/184 203/6/183 202/2/188 198/1/187
f 200/7/182 204/8/189 207/9/190 203/6/183
f 201/3/186 205/10/191 204/11/189 200/12/182
f 202/2/188 206/13/192 205/10/191 201/3/186
f 203/6/183 207/9/190 206/13/192 202/2/188
f 204/8/189 208/14/193 211/15/194 207/9/190
f 205/10/191 209/16/195 208/17/193 204/11/189
f 206/13/192 210/18/196 209/16/195 205/10/191
f 207/9/190 211/15/194 210/18/196 206/13/192
f 208/14/193 212/19/197 215/20/198 211/15/194
f 209/16/195 213/21/199 212/22/197 208/17/193
f 210/18/196 214/23/200 213/21/199 209/16/195
f 211/15/194 215/20/198 214/23/200 210/18/196
f 215/20/198 212/22/197 213/21/199 214/23/200
f 216/25/201 218/7/202 221/6/203 217/5/201
f 218/7/202 222/8/204 225/9/205 221/6/203
f 219/3/206 223/10/207 222/11/204 218/12/202
f 221/6/203 225/9/205 224/13/208 220/2/209
f 222/8/204 226/14/210 229/15/211 225/9/205
f 223/10/207 227/16/212 226/17/210 222/11/204
f 224/13/208 228/18/213 227/16/212 223/10/207
f 225/9/205 229/15/211 228/18/213 224/13/208
f 226/14/210 230/19/214 233/20/215 229/15/211
f 227/16/212 231/21/216 230/22/214 226/17/210
f 228/18/213 232/23/217 231/21/216 227/16/212
f 229/15/211 233/20/215 232/23/217 228/18/213
f 233/20/215 230/22/214 231/21/216 232/23/217
f 234/25/218 238/7/219 241/6/220 237/5/221
f 235/4/222 239/3/223 238/12/219 234/24/218
f 237/5/221 241/6/220 240/2/224 236/1/225
f 238/7/219 242/8/226 245/9/227 241/6/220
f 239/3/223 243/10/228 242/11/226 238/12/219
f 241/6/220 245/9/227 244/13/229 240/2/224
f 242/8/226 246/14/230 249/15/231 245/9/227
f 243/10/228 247/16/232 246/17/230 242/11/226
f 244/13/229 248/18/233 247/16/232 243/10/228
f 245/9/227 249/15/231 248/18/233 244/13/229
f 246/14/230 250/19/234 253/20/235 249/15/231
f 247/16/232 251/21/236 250/22/234 246/17/230
f 248/18/233 252/23/237 251/21/236 247/16/232
f 249/15/231 253/20/235 252/23/237 248/18/233
f 253/20/235 250/22/234 251/21/236 252/23/237
s 0
f 265/24/260 260/24/260 262/24/260
f 265/24/260 259/24/260 260/24/260
f 263/24/260 265/24/260 262/24/260
f 265/24/260 254/24/260 259/24/260
f 264/24/260 265/24/260 263/24/260
f 258/24/260 259/24/260 257/24/260
f 260/24/260 261/24/260 262/24/260
f 257/24/260 259/24/260 256/24/260
f 255/24/261 254/24/261 265/24/261
f 259/24/260 254/24/260 256/24/260
s 1
usemtl red
f 71/26/238 255/27/238 265/28/239 70/29/240
f 70/29/240 265/28/239 264/30/241 69/5/242
f 69/5/242 264/30/241 263/31/243 68/32/244
f 68/32/244 263/31/243 262/33/245 67/34/246
f 67/34/246 262/33/245 261/35/247 66/1/248
f 66/1/248 261/35/247 260/36/249 65/37/249
f 65/37/249 260/36/249 259/38/250 64/39/251
f 64/39/251 259/38/250 258/40/252 63/4/253
f 63/4/253 258/40/252 257/41/254 62/42/255
f 62/42/255 257/41/254 256/43/256 61/44/257
f 61/44/257 256/43/256 254/45/258 60/24/259
f 60/25/259 254/46/258 255/27/238 71/26/238
